<?xml version="1.0" encoding="UTF-8"?>
<svg width="116px" height="174px" viewBox="0 0 116 174" version="1.1" xmlns="http://www.w3.org/2000/svg" xmlns:xlink="http://www.w3.org/1999/xlink">
    <!-- Generator: Sketch 49.3 (51167) - http://www.bohemiancoding.com/sketch -->
    <title>logo</title>
    <desc>Created with Sketch.</desc>
    <defs>
        <polygon id="path-1" points="0 0.123664668 115.932083 0.123664668 115.932083 173.999909 0 173.999909"></polygon>
    </defs>
    <g id="Page-1" stroke="none" stroke-width="1" fill="none" fill-rule="evenodd">
        <g id="Desktop-HD" transform="translate(-662.000000, -431.000000)">
            <g id="logo" transform="translate(662.000000, 431.000000)">
                <g id="potato">
                    <path d="M90.2257041,10.4473073 C79.1082502,-4.62713895 36.3524471,1.44835422 25.81857,20.9460858 C2.71326305,63.7130103 -11.1463095,130.576431 25.81857,159.829928 C42.5900071,173.102484 65.8111867,177.502072 86.6140891,167.629021 C94.269208,163.996143 103.436992,156.220448 107.380875,146.331498 C117.63425,120.621189 113.473068,79.8355345 111.293458,54.5421772 C108.422525,21.2256533 102.001977,26.4150496 90.2257041,10.4473073" id="Fill-1" fill="#FFE1FB"></path>
                    <path d="M81.1801542,30.4945471 C82.2206207,26.9931994 85.6223454,24.7117648 89.1893978,25.0294442 C92.7598056,25.3474226 95.8458215,28.2113193 95.9943724,31.6690346 C96.1697662,35.7396949 92.2186776,39.3665604 87.8734868,38.9702829 C83.7735422,38.5964193 80.1390776,34.6919205 81.1801542,30.4945471" id="Fill-3" fill="#000000"></path>
                    <g id="Group-7">
                        <mask id="mask-2" fill="white">
                            <use xlink:href="#path-1"></use>
                        </mask>
                        <g id="Clip-6"></g>
                        <path d="M111.768044,103.85649 C111.857598,93.35109 111.002924,82.08009 109.511453,70.86099 C108.011567,59.58159 106.429639,48.31209 104.74223,37.05909 C103.910696,31.51479 102.236209,26.18319 98.883629,21.59109 C91.6062819,11.62389 81.7495876,6.06519 69.4565927,4.80819 C62.9807275,4.14609 56.5541472,4.63059 50.1413907,5.57529 C46.6115047,6.09519 43.2309762,7.08909 40.2095668,8.98959 C36.118914,11.56269 32.6479295,14.88819 29.6947378,18.67569 C22.1255876,28.38249 16.3757741,39.12159 12.4044269,50.74509 C8.27711088,62.82519 5.88107979,75.28389 4.97501762,88.02999 C4.25617824,98.13999 3.99021969,108.23529 5.22564974,118.32789 C6.16657202,126.01329 8.4547171,133.23549 12.570914,139.82319 C14.6336705,143.12499 16.7847793,146.37399 18.9731523,149.59449 C21.9209347,153.93249 25.6488622,157.52679 30.336344,159.87549 C39.1896083,164.31189 48.290199,168.09429 58.3103751,169.07229 C64.3195358,169.65909 70.3118674,169.92099 76.2939813,168.84099 C86.1774218,167.05689 94.4080124,162.20229 101.485215,155.25429 C106.059101,150.76419 108.960002,145.31589 109.67223,138.96129 C110.948831,127.57599 111.811318,116.15199 111.768044,103.85649 M115.906779,104.59269 C116.088893,116.35839 115.274489,128.08119 113.922759,139.75779 C113.169059,146.26629 110.37995,152.02029 105.933484,156.82209 C97.3215358,166.12239 86.8487793,172.16499 74.1047067,173.53719 C63.735629,174.65349 53.4639192,173.82669 43.5795772,170.21649 C39.0168104,168.54999 34.4801886,166.76949 30.0664788,164.74749 C23.9268933,161.93439 19.0212352,157.55349 15.2274943,151.97679 C12.9540746,148.63509 10.7191212,145.26309 8.58303834,141.83289 C3.96136995,134.41209 1.60650984,126.23649 0.80172228,117.59229 C-1.30941762,94.91649 0.672499482,72.63969 7.65413679,50.90619 C11.5758984,38.69769 17.4681575,27.43929 25.232344,17.24049 C27.8853181,13.75569 31.0966549,10.63839 34.3509658,7.68069 C37.8685306,4.48359 42.2074114,2.57529 46.8747585,1.69809 C55.2378777,0.12579 63.6641057,-0.43551 72.1426238,0.78789 C84.5323855,2.57529 94.4383648,8.56749 101.970852,18.47889 C105.950012,23.71389 107.965588,29.80899 108.986147,36.20199 C111.960976,54.83559 114.702904,73.50219 115.810914,92.36379 C115.847878,92.99289 115.900769,93.62259 115.902572,94.25199 C115.911588,97.69899 115.906779,101.14599 115.906779,104.59269" id="Fill-5" fill="#000000" mask="url(#mask-2)"></path>
                    </g>
                    <path d="M36.1801507,28.4945471 C37.2205975,24.9931994 40.6222573,22.7117648 44.1892418,23.0294442 C47.7595815,23.3474226 50.8455386,26.2113193 50.9943917,29.6690346 C51.1694771,33.7396949 47.2184638,37.3665604 42.8733558,36.9702829 C38.7734894,36.5964193 35.139094,32.6919205 36.1801507,28.4945471" id="Fill-11" fill="#000000"></path>
                    <path d="M45.437245,26 C47.5559472,26.175276 48.8396297,27.2547341 48.9917292,29.3873591 C49.1343605,31.3891314 47.4117887,33.1355448 45.4054812,32.9916977 C43.2812814,32.8396911 41.9914905,31.630287 42.0000423,29.49464 C42.0082886,27.3595975 43.311518,26.2372269 45.437245,26" id="Fill-15" fill="#FFFFFF"></path>
                    <path d="M89.4370957,28 C91.5557059,28.175276 92.839638,29.2547341 92.9917309,31.3873591 C93.1343561,33.3891314 91.4115537,35.1355448 89.4053333,34.9916977 C87.2815312,34.8396911 85.9914908,33.630287 86.0000423,31.49464 C86.0085937,29.3595975 87.3114611,28.2372269 89.4370957,28" id="Fill-17" fill="#FFFFFF"></path>
                    <path d="M74,44.9708401 C74,49.4052304 70.1944286,53 65.5,53 C60.8055714,53 57,47.1111847 57,44.9708401 C57,40.5364498 60.8055714,44.9708401 65.5,44.9708401 C70.1944286,44.9708401 74,40.5364498 74,44.9708401" id="Fill-19" fill="#000000"></path>
                </g>
            </g>
        </g>
    </g>
</svg>