<?xml version="1.0" encoding="UTF-8"?>
<svg width="95px" height="94px" viewBox="0 0 95 94" version="1.1" xmlns="http://www.w3.org/2000/svg" xmlns:xlink="http://www.w3.org/1999/xlink">
    <!-- Generator: Sketch 49.3 (51167) - http://www.bohemiancoding.com/sketch -->
    <title>Page 1</title>
    <desc>Created with Sketch.</desc>
    <defs>
        <polygon id="path-1" points="0 0.0002 94.464 0.0002 94.464 93.8172 0 93.8172"></polygon>
    </defs>
    <g id="Page-1" stroke="none" stroke-width="1" fill="none" fill-rule="evenodd">
        <g id="Desktop-HD" transform="translate(-198.000000, -189.000000)">
            <g id="Page-1" transform="translate(198.000000, 189.000000)">
                <mask id="mask-2" fill="white">
                    <use xlink:href="#path-1"></use>
                </mask>
                <g id="Clip-2"></g>
                <path d="M91.0332,93.8177 C90.8502,93.5467 90.7212,93.3547 90.5642,93.1207 C90.0892,93.0087 89.6242,92.7357 89.1972,92.3687 C88.9792,92.1817 88.7082,92.0317 88.4362,91.9427 C88.2832,91.8927 88.0782,92.0037 87.8712,92.0467 C87.8172,91.9127 87.7602,91.7677 87.7192,91.6637 C87.0232,91.4277 86.3562,91.2037 85.6892,90.9757 C85.1342,90.2157 84.3692,90.2827 83.8452,89.9267 C83.2912,89.5497 82.6022,89.3487 82.1012,88.9207 C81.3882,88.3117 80.4862,88.0337 79.7812,87.4347 C79.5432,87.2327 79.2842,87.0507 79.0182,86.8867 C78.8562,86.7877 78.6682,86.7157 78.4822,86.6717 C78.1522,86.5937 77.8662,86.4227 77.7202,86.1377 C77.4192,85.5467 76.8582,85.2887 76.3272,85.0217 C75.9542,84.8347 75.7012,84.6297 75.4812,84.2577 C75.3252,83.9947 75.1002,83.6617 74.7082,83.5637 C74.5132,83.5157 74.3392,83.3637 74.1702,83.2387 C73.6622,82.8637 73.1612,82.4797 72.6582,82.0977 C72.5632,82.0267 72.4492,81.9647 72.3862,81.8717 C71.7492,80.9097 70.8612,80.2147 69.9542,79.5347 C69.7562,79.3847 69.6072,79.1687 69.4412,78.9777 C69.3252,78.8437 69.2392,78.6787 69.1062,78.5657 C68.4152,77.9787 67.7112,77.4057 67.0162,76.8217 C66.9292,76.7487 66.8662,76.6427 66.7982,76.5487 C66.7402,76.4697 66.7092,76.3507 66.6332,76.3077 C65.8272,75.8507 65.3522,75.0407 64.6672,74.4697 C64.0112,73.9227 63.4942,73.2537 62.8622,72.6947 C62.7372,72.5847 62.5702,72.5207 62.4222,72.4357 C62.2222,71.5777 61.6832,70.9577 60.9282,70.5117 C60.5842,70.3087 60.3202,70.0417 60.1052,69.7107 C60.0222,69.5847 59.8902,69.3827 59.7962,69.3907 C59.4102,69.4217 59.2832,69.1187 59.1682,68.8977 C58.8262,68.2497 58.1902,67.8407 57.8532,67.1807 C57.6832,66.8467 57.3072,66.6207 57.0282,66.3407 C56.5552,65.8677 56.1032,65.3727 55.6062,64.9257 C55.4032,64.7437 55.1072,64.6647 54.8262,64.5247 C54.7592,63.7877 54.0182,62.8727 53.3332,62.7447 C53.1942,62.3387 53.0322,61.9487 52.6442,61.6807 C52.4562,61.5497 52.3482,61.3097 52.1882,61.1337 C51.8542,60.7677 51.5092,60.4107 51.1672,60.0507 C50.7312,59.5917 50.2802,59.1467 49.8592,58.6747 C49.5032,58.2757 49.2192,57.8057 48.8322,57.4427 C48.4742,57.1067 48.0612,56.8347 47.7232,56.4627 C47.3452,56.0477 47.1222,55.4757 46.5492,55.2527 C46.4972,54.7667 46.0842,54.5147 45.8332,54.1607 C45.7332,54.0187 45.5922,53.8987 45.4472,53.8017 C45.1842,53.6277 44.8772,53.5087 44.8232,53.1347 C44.1682,52.8367 44.0702,52.3617 43.8092,52.0167 C43.5272,51.6457 43.1582,51.3407 42.8212,51.0117 C42.7382,50.9307 42.6232,50.8827 42.5452,50.7987 C42.1652,50.3937 41.7892,49.9857 41.4212,49.5717 C41.1712,49.2907 40.9372,48.9947 40.6922,48.7087 C40.2152,48.1527 39.7352,47.5987 39.2582,47.0437 C38.9232,46.6527 38.5912,46.2577 38.2532,45.8697 C38.1552,45.7557 38.0462,45.6507 37.9342,45.5507 C37.8162,45.4457 37.6392,45.3777 37.5742,45.2497 C37.2962,44.7107 36.7362,44.3927 36.4882,43.8327 C36.4462,43.7397 36.3072,43.6907 36.2172,43.6187 C36.0962,43.5207 35.9622,43.4327 35.8642,43.3157 C35.5752,42.9667 35.3412,42.5667 34.8952,42.3767 C34.5882,41.6047 34.1252,41.2507 33.7242,40.8407 C33.4432,40.5547 33.2202,40.2127 32.9472,39.9187 C32.6412,39.5897 32.3262,39.2657 31.9832,38.9797 C31.3952,38.4887 30.7422,38.0617 30.5952,37.2247 C29.9032,36.8377 29.7262,36.2547 29.4072,35.7907 C29.3182,35.6617 29.2442,35.4967 29.1192,35.4227 C28.8132,35.2447 28.5672,35.0357 28.4732,34.6787 C27.8702,34.4197 27.7692,33.9447 27.5012,33.6127 C27.2172,33.2587 26.8692,32.9577 26.5542,32.6287 C26.4612,32.5317 26.3542,32.4297 26.3052,32.3097 C25.9562,31.4557 25.3372,30.7877 24.7672,30.0907 C24.2702,29.4827 23.7042,28.9297 23.2202,28.3127 C22.9472,27.9637 22.7812,27.5317 22.5572,27.1437 C22.4912,27.0287 22.4092,26.8657 22.3062,26.8397 C21.9262,26.7457 21.9702,26.2667 21.6352,26.1507 C21.7942,25.7737 21.4142,25.5827 21.3232,25.2897 C21.2462,25.0437 21.0092,24.8507 20.8682,24.6197 C20.7382,24.4037 20.6482,24.1647 20.5282,23.9417 C20.4342,23.7677 20.3252,23.6007 20.0902,23.6007 C19.7332,23.5997 19.7192,23.3667 19.6562,23.0797 C19.5272,22.4887 19.4262,21.8407 19.1052,21.3547 C18.6562,20.6737 18.2952,19.9627 17.9772,19.2247 C17.8952,19.0337 17.9162,18.7987 17.8872,18.5847 C17.8702,18.4657 17.8652,18.3417 17.8252,18.2317 C17.6362,17.7057 17.8772,17.3707 18.1732,16.9257 C18.5592,16.3457 19.0712,16.0587 19.6272,15.7567 C19.9552,15.5787 20.2952,15.4037 20.5762,15.1647 C20.7202,15.0437 20.7932,14.7877 20.8142,14.5847 C20.8392,14.3417 20.6072,14.3557 20.4312,14.3217 C20.2982,14.2967 20.1502,14.2567 20.0462,14.1747 C19.6112,13.8317 19.1482,13.6287 18.5742,13.5927 C18.2622,13.5737 17.9642,13.3257 17.6312,13.1677 C17.5522,13.2687 17.4742,13.3667 17.3992,13.4617 C16.9552,13.0857 16.7002,12.6377 16.1202,12.8227 C15.4122,12.2587 14.7042,12.1457 14.0232,11.9917 C13.7042,11.9197 13.3772,11.9317 13.1402,11.6477 C13.0852,11.5817 12.9582,11.5457 12.8652,11.5457 C12.4822,11.5487 12.1022,11.6147 11.7382,11.3947 C11.6572,11.3467 11.4602,11.4907 11.2832,11.5597 C11.1792,11.4737 11.0442,11.3607 10.9032,11.2437 C10.4842,12.0667 10.5622,12.7997 10.6532,13.5287 C10.7322,14.1717 10.8102,14.8167 10.9522,15.4477 C11.0492,15.8797 11.1702,16.2867 10.9432,16.7087 C11.2352,17.7577 11.0732,18.6487 11.0862,19.5347 C11.0942,20.0817 11.2282,20.6257 11.2542,21.1737 C11.2852,21.8257 11.2622,22.4807 11.2622,23.1337 C11.2622,23.4107 11.2042,23.6997 11.2672,23.9607 C11.4412,24.6807 11.3642,25.3937 11.3392,26.1187 C11.3152,26.7857 11.4612,27.4597 11.5422,28.1297 C11.9792,28.7637 11.9822,28.7617 11.5712,29.0427 C11.6142,29.9707 11.6472,30.8947 11.7052,31.8177 C11.7202,32.0677 11.8182,32.3117 11.8652,32.5607 C11.6352,33.5927 11.7352,34.3467 11.8922,35.1017 C11.9142,35.2107 11.8822,35.3317 11.8752,35.4467 C11.8662,35.6017 11.8132,35.7697 11.8552,35.9097 C12.0802,36.6627 11.7892,37.3627 11.6662,38.0807 C11.6492,38.1777 11.6032,38.2877 11.6302,38.3737 C11.8322,39.0147 11.6292,39.6297 11.5272,40.2537 C11.5022,40.4097 11.5002,40.5707 11.4972,40.7297 C11.4862,41.3807 11.5062,42.0347 11.4582,42.6827 C11.4212,43.1937 11.2812,43.6967 11.2272,44.2077 C11.1882,44.5797 11.2482,44.9627 11.2072,45.3347 C11.1632,45.7187 11.0512,46.0967 10.9682,46.4777 C10.9422,46.5947 10.8822,46.7137 10.8912,46.8267 C10.9422,47.4277 10.7832,48.0017 10.7132,48.5877 C10.6582,49.0427 10.5812,49.4637 10.4272,49.9017 C10.1952,50.5597 10.1482,51.2837 9.9242,51.9457 C9.7032,52.5987 9.7682,53.2687 9.6852,53.9257 C9.5522,54.9857 9.0142,55.7367 8.2382,56.4037 C7.6562,56.9017 6.9932,57.2397 6.2862,57.4667 C5.6382,57.6757 5.0082,57.4717 4.4482,57.0957 C4.1222,56.8777 3.8012,56.6507 3.5012,56.3987 C3.3992,56.3127 3.3262,56.1437 3.3152,56.0067 C3.2812,55.5977 3.2622,55.1857 3.2812,54.7767 C3.2962,54.4427 3.3582,54.1087 3.4272,53.7817 C3.5122,53.3777 3.6272,52.9787 3.7292,52.5777 C3.8502,52.0997 3.9712,51.6217 4.0952,51.1437 C4.1712,50.6167 4.1062,50.1677 4.2392,49.7857 C4.3792,49.3807 4.4522,48.9897 4.4742,48.5717 C4.4982,48.0807 4.5292,47.5887 4.5872,47.1017 C4.6532,46.5487 4.8752,46.0057 4.6192,45.4407 C4.5812,45.3557 4.6302,45.1917 4.6932,45.1037 C5.1222,44.5077 5.0082,43.7957 5.1142,43.1357 C5.2072,42.5527 5.1772,41.9487 5.1852,41.3527 C5.1872,41.2237 5.1232,41.0937 5.0892,40.9647 C5.1242,40.4397 5.1312,39.8927 5.1692,39.3487 C5.1912,39.0437 5.3092,38.7407 5.3042,38.4367 C5.2952,37.8027 5.1742,37.1747 5.3002,36.5327 C5.3502,36.2787 5.2122,35.9927 5.1972,35.7187 C5.1842,35.5077 4.9992,35.2587 5.2942,35.0857 C5.1072,34.3747 5.4432,33.7297 4.9802,33.2437 C4.9672,32.6707 4.8612,32.0607 5.1092,31.5457 C5.2642,31.2217 5.1752,30.9367 5.2162,30.6407 C5.2542,30.3677 5.2922,30.0267 4.9702,29.8347 C5.0922,29.4197 4.7692,29.0637 4.8192,28.6517 C4.8632,28.2827 4.8762,27.9077 4.8822,27.5357 C4.8842,27.4247 4.8142,27.3137 4.7812,27.2017 C4.6692,26.8167 4.6332,26.4387 4.6962,26.0297 C4.7482,25.6877 4.6852,25.3257 4.6552,24.9737 C4.6322,24.7047 4.6072,24.4307 4.5332,24.1727 C4.4372,23.8297 4.4772,23.5187 4.5672,23.1787 C4.6292,22.9477 4.5382,22.6757 4.5122,22.4217 C4.4042,21.3647 4.2912,20.3067 4.1882,19.2487 C4.1522,18.8817 3.9722,18.5557 4.0032,18.1517 C4.0222,17.9117 4.0282,17.6787 4.0742,17.4297 C4.1252,17.1517 4.0392,16.8417 3.9722,16.5557 C3.9552,16.4847 3.7812,16.4507 3.6442,16.3817 C3.7592,16.3367 3.8512,16.3007 3.9292,16.2707 C3.8472,15.8967 3.7892,15.5337 3.6862,15.1847 C3.6242,14.9727 3.6182,14.8177 3.7772,14.6407 C3.9422,14.4567 3.8942,13.8587 3.7392,13.6667 C3.6772,13.5907 3.6132,13.5167 3.5302,13.4187 C3.9442,13.0827 3.9382,12.6557 3.8492,12.1947 C3.8112,12.0017 3.7852,11.7577 3.8712,11.6007 C4.0302,11.3117 3.8262,11.2097 3.6942,11.0477 C3.5332,10.8537 3.2072,10.7297 3.4292,10.3627 C3.4592,10.3117 3.2722,10.1097 3.1642,9.9987 C2.2302,9.0387 1.2992,8.0757 0.3492,7.1307 C0.0912,6.8737 -0.0758,6.6217 0.0342,6.2457 C0.0622,6.1517 0.0622,6.0477 0.0622,5.9487 C0.0632,5.2747 0.2052,4.8187 0.5842,4.2957 C0.5912,3.7047 0.8402,3.3047 1.0782,2.8977 C1.1742,2.7357 1.2972,2.5687 1.3212,2.3927 C1.3872,1.9107 1.8092,1.6617 1.9952,1.2957 C2.3072,0.6817 2.8472,0.5467 3.3662,0.2967 C3.7152,0.1277 4.0512,-0.0173 4.4502,0.0017 C4.8832,0.0217 5.3182,0.0047 5.7512,0.0227 C5.8372,0.0267 5.9732,0.0987 5.9952,0.1687 C6.2652,1.0177 7.0022,0.9967 7.6792,1.0977 C7.8462,1.1227 8.0102,1.1727 8.1762,1.2127 C8.7532,1.1867 8.9732,1.3647 9.2342,1.4477 C9.6462,1.5797 9.8482,1.8617 10.0232,2.2127 C10.1442,2.4547 10.3522,2.5927 10.6242,2.6617 C11.1842,2.8007 11.7452,2.9417 12.2892,3.1287 C12.9912,3.3687 13.6752,3.6627 14.3722,3.9157 C14.8142,4.0757 15.2682,4.1997 15.7152,4.3457 C16.0162,4.4447 16.3612,4.4897 16.6032,4.6707 C17.1552,5.0797 17.8232,5.1377 18.4312,5.3667 C18.9102,5.5467 19.4262,5.6297 19.9222,5.7667 C20.0722,5.8087 20.2102,5.8927 20.3552,5.9527 C20.6422,6.0737 20.9312,6.1887 21.2192,6.3107 C21.3652,6.3727 21.5122,6.4347 21.6502,6.5117 C21.8332,6.6137 21.9802,6.8067 22.2382,6.6587 C23.0222,6.9377 23.5422,7.1297 24.0642,7.3207 C24.8772,7.8957 25.7022,7.9257 26.4442,8.1817 C26.5942,8.2327 26.7502,8.2747 26.8902,8.3457 C27.1562,8.4817 27.3562,8.4547 27.6492,8.3107 C28.1002,8.0877 28.6292,8.0187 29.1282,7.8977 C29.2192,7.8757 29.3292,7.9017 29.4232,7.9297 C30.3672,8.2157 31.3072,8.5147 32.2532,8.7957 C33.0462,9.0307 33.8492,9.2327 34.6382,9.4787 C35.3922,9.7137 36.1342,9.9857 36.8792,10.2447 C37.7042,10.5307 38.5302,10.8127 39.3502,11.1087 C39.9752,11.3347 40.5862,11.6017 41.2172,11.8067 C41.5342,11.9097 41.8592,11.9637 42.1012,12.2187 C42.7912,12.5417 43.3522,12.7317 43.8982,12.9567 C44.3872,13.1577 44.8472,13.4337 45.3452,13.6057 C45.8292,13.7737 46.2622,14.0427 46.7342,14.2247 C48.0952,14.7497 49.4562,15.2747 50.8322,15.7557 C51.2552,15.9047 51.7252,15.9477 52.1782,15.9797 C52.6902,16.0157 53.2252,15.8977 53.7182,16.0017 C54.9502,16.2627 55.8102,16.6917 55.6072,18.4127 C55.5762,18.6697 55.5622,18.9277 55.5222,19.1827 C55.5052,19.2967 55.4772,19.4567 55.3972,19.5067 C54.9612,19.7847 54.9682,20.2297 54.9042,20.6597 C54.8802,20.8277 54.7932,20.9907 54.7122,21.1437 C54.5912,21.3717 54.4192,21.5757 54.3242,21.8127 C54.1432,22.2617 53.7852,22.5207 53.4282,22.8107 C52.9322,23.2127 52.4562,23.6507 52.0412,24.1337 C51.8302,24.3787 51.5702,24.4467 51.3202,24.5567 C51.0732,24.6647 50.7892,24.6847 50.5292,24.7667 C49.6332,25.0487 48.7642,24.9507 47.9212,24.5777 C47.5622,24.4187 47.2352,24.1837 46.8712,24.0397 C46.5222,23.9017 46.1452,23.8357 45.7802,23.7407 C45.6672,23.7117 45.5102,23.7337 45.4432,23.6637 C44.9732,23.1817 44.2942,23.2747 43.7422,23.0217 C43.2972,22.8167 42.8052,22.7577 42.3832,22.4457 C42.0652,22.2107 41.6182,22.1417 41.2222,22.0227 C40.2942,21.7407 39.3212,21.5637 38.4412,21.1737 C37.6362,20.8177 36.7372,20.7967 35.9742,20.3517 C35.3152,19.7837 34.6812,19.8257 34.1312,19.6387 C33.8222,19.5337 33.5452,19.3197 33.2722,19.1287 C33.1132,19.0157 32.9902,18.9337 32.7652,18.9117 C32.2712,18.8617 31.7222,18.9277 31.3212,18.4937 C31.2422,18.4077 31.0552,18.4317 30.9282,18.3807 C30.6782,18.2817 30.4362,18.1617 30.1882,18.0587 C29.7182,17.8617 29.2972,17.5637 28.7652,17.4907 C28.4602,17.4487 28.1842,17.2097 27.8782,17.1557 C27.5042,17.0907 27.2572,16.6027 26.8032,16.8447 C26.4612,16.6457 26.1112,16.4837 25.7232,16.3707 C25.3012,16.2467 24.9202,15.9837 24.5132,15.8007 C24.3062,15.7087 24.0802,15.6567 23.8232,15.5737 C23.8262,16.6987 24.4412,17.4307 25.0332,18.1957 C25.5762,18.8957 26.0372,19.6587 26.5292,20.3977 C26.5832,20.4787 26.5792,20.6107 26.6462,20.6677 C27.3602,21.2777 27.6972,22.1627 28.2732,22.8717 C28.4452,23.0837 28.6742,23.2547 28.8172,23.4827 C29.4932,24.5567 30.3562,25.4897 31.0842,26.5257 C31.5502,27.1867 32.0702,27.8107 32.5872,28.4347 C32.7592,28.6417 32.9962,28.7937 33.2032,28.9717 C33.3242,29.0747 33.4742,29.1597 33.5582,29.2867 C33.8972,29.7997 34.1912,30.3437 34.5492,30.8427 C34.8952,31.3257 35.2902,31.7757 35.6782,32.2287 C36.6222,33.3297 37.5702,34.4277 38.5272,35.5177 C38.7742,35.7987 39.0582,36.0487 39.3352,36.3027 C39.4962,36.4517 39.6572,36.5847 39.6562,36.8337 C40.3782,37.5947 40.9912,38.1427 41.5702,38.7247 C41.7872,38.9437 41.9052,39.2597 42.1092,39.4947 C42.8492,40.3457 43.6062,41.1837 44.3602,42.0227 C44.9912,42.7277 45.6482,43.4107 46.2572,44.1337 C46.8912,44.8877 47.4672,45.6917 48.0972,46.4507 C48.4642,46.8917 48.8862,47.2867 49.2842,47.7017 C50.1732,48.7417 51.0932,49.4297 51.7372,50.3707 C51.8252,50.5007 51.9432,50.6137 52.0612,50.7197 C52.6542,51.2537 53.1322,51.8867 53.6462,52.4917 C54.2382,53.1857 54.8912,53.8277 55.5182,54.4917 C55.9812,54.9817 56.4452,55.4697 56.9042,55.9637 C57.0512,56.1207 57.1472,56.3637 57.4622,56.1377 C57.5092,56.8927 57.8832,57.3147 58.5212,57.5157 C58.9842,58.3297 59.6642,59.0657 60.2602,59.5037 C60.5052,59.6827 60.7002,59.9577 60.8602,60.2237 C61.0672,60.5677 61.3092,60.8627 61.5962,61.1487 C62.1282,61.6817 62.5992,62.2767 63.0972,62.8437 C63.1762,62.9327 63.2452,63.0387 63.3422,63.0977 C64.0382,63.5357 64.4382,64.2597 65.0152,64.8137 C65.5412,65.3177 65.8462,66.0187 66.4652,66.4547 C66.6642,66.5947 66.7532,66.8817 66.9322,67.0607 C67.4152,67.5417 67.9272,67.9927 68.4132,68.4687 C68.7612,68.8097 69.0862,69.1737 69.4202,69.5287 C69.8832,70.0197 70.3312,70.5247 70.8112,70.9987 C71.0172,71.2017 71.2902,71.3387 71.5272,71.5117 C71.6202,71.5797 71.7222,71.6487 71.7822,71.7427 C72.1722,72.3497 72.6192,72.8947 73.2482,73.2777 C73.4292,73.3877 73.5662,73.5707 73.7212,73.7217 C74.2872,74.2707 74.9002,74.7637 75.4192,75.3707 C75.7952,75.8097 76.3102,76.1297 76.7632,76.5037 C77.2882,77.3917 77.9252,77.8377 78.5502,78.2967 C78.6782,78.3907 78.7872,78.5107 78.8962,78.6267 C79.4402,79.1967 80.0072,79.7377 80.6772,80.1647 C80.8212,80.2567 80.9062,80.4417 81.0482,80.5427 C81.1722,80.6307 81.3392,80.6607 81.5782,80.7517 C81.7072,81.1717 82.1732,81.4087 82.5822,81.7187 C83.8012,82.6427 85.0532,83.5167 86.3612,84.3097 C87.2102,84.8237 93.5962,89.3387 94.4642,89.8187" id="Fill-1" fill="#000000" mask="url(#mask-2)"></path>
            </g>
        </g>
    </g>
</svg>